<?xml version="1.0" encoding="UTF-8"?>
<svg version="1.1" xmlns="http://www.w3.org/2000/svg" width="409" height="279">
<path d="M0 0 C0.90053596 -0.00453111 1.80107193 -0.00906223 2.72889686 -0.01373065 C5.74109027 -0.02637283 8.75310284 -0.02475438 11.76531982 -0.02310181 C13.92729423 -0.0290872 16.0892665 -0.03589278 18.25123596 -0.04345703 C24.12121104 -0.06112404 29.99112781 -0.06581274 35.8611269 -0.0670886 C39.53004118 -0.06851048 43.19894065 -0.07278079 46.86785126 -0.07808304 C59.67206259 -0.09658634 72.47623228 -0.10475336 85.28045654 -0.10317993 C97.20810417 -0.10197878 109.13557076 -0.12307533 121.06317258 -0.15466726 C131.30965819 -0.18083751 141.55608471 -0.19154689 151.80260348 -0.19026911 C157.91964757 -0.18975966 164.03653082 -0.19543375 170.15354156 -0.21662521 C175.90903332 -0.23601977 181.664211 -0.23612347 187.41971397 -0.22159195 C189.5279734 -0.21950422 191.63625255 -0.22420257 193.74447823 -0.23631287 C214.89569142 -0.34990861 214.89569142 -0.34990861 221.95574951 4.26742554 C224.39324951 6.70492554 224.39324951 6.70492554 225.95574951 9.26742554 C226.47693359 9.95924927 226.99811768 10.651073 227.53509521 11.36386108 C229.50963056 15.39945979 229.33165852 18.85562757 229.24871826 23.28695679 C229.24447342 24.1455278 229.24022858 25.00409882 229.2358551 25.88868713 C229.21911946 28.61942468 229.18147717 31.34941266 229.14324951 34.07992554 C229.12819604 35.93603464 229.11450879 37.79215536 229.10223389 39.64828491 C229.06923274 44.18828539 229.0174861 48.72772856 228.95574951 53.26742554 C230.53523125 53.25410187 230.53523125 53.25410187 232.1466217 53.24050903 C242.10596405 53.15916142 252.06523833 53.09933499 262.02483845 53.06017685 C267.14428446 53.03936792 272.26346068 53.01117344 277.38275146 52.96566772 C282.33001009 52.92197012 287.27701041 52.89823817 292.22444725 52.88791656 C294.10496266 52.88056791 295.98546511 52.86621843 297.86586952 52.84450531 C311.57328937 52.69262636 322.70653527 53.18507276 333.08465576 63.19320679 C338.74519986 69.46825672 341.46283148 77.34473506 343.04168701 85.52914429 C343.21490479 86.41948364 343.38812256 87.309823 343.56658936 88.22714233 C343.69501221 88.90043579 343.82343506 89.57372925 343.95574951 90.26742554 C344.56571777 90.25171509 345.17568604 90.23600464 345.80413818 90.21981812 C348.58374661 90.15722741 351.36320643 90.11835931 354.14324951 90.07992554 C355.10295654 90.05478882 356.06266357 90.0296521 357.05145264 90.00375366 C366.2960151 89.90778935 366.2960151 89.90778935 369.95574951 93.26742554 C371.17840576 95.50961304 371.17840576 95.50961304 372.01824951 98.14242554 C372.33406982 99.1234021 372.64989014 100.10437866 372.97528076 101.11508179 C373.46061279 102.67549194 373.46061279 102.67549194 373.95574951 104.26742554 C374.51842529 105.81236694 374.51842529 105.81236694 375.09246826 107.38851929 C377.92014729 115.49453251 378.41704242 122.72069303 377.95574951 131.26742554 C374.90590955 132.79234552 372.31341261 132.50305102 368.95574951 132.26742554 C366.04097353 130.08742614 365.19877796 127.67765984 364.13153076 124.26742554 C363.82537842 123.29805054 363.51922607 122.32867554 363.20379639 121.32992554 C362.74070068 119.81398804 362.74070068 119.81398804 362.26824951 118.26742554 C361.94791748 117.25680054 361.62758545 116.24617554 361.29754639 115.20492554 C358.95574951 107.69519739 358.95574951 107.69519739 358.95574951 104.26742554 C355.65574951 104.26742554 352.35574951 104.26742554 348.95574951 104.26742554 C353.33125112 119.83246173 353.33125112 119.83246173 358.30755615 135.21078491 C365.08787176 154.93966118 366.65552626 173.16415763 366.58709717 193.86630249 C366.57538362 197.71759398 366.60975849 201.56700013 366.65578651 205.41797924 C366.68530041 208.41475973 366.68700233 211.41108371 366.68076706 214.40798378 C366.68178666 215.82848227 366.69213328 217.24900861 366.7123909 218.66936302 C366.86727512 231.01470518 366.86727512 231.01470518 363.28533936 235.56161499 C358.22592292 240.25631172 352.79513381 240.56201026 346.15106201 240.46273804 C345.42708221 240.45990814 344.70310242 240.45707825 343.95718384 240.4541626 C341.66486461 240.44304641 339.37294888 240.41795865 337.08074951 240.39242554 C335.51825519 240.38238463 333.95575469 240.37326073 332.39324951 240.36508179 C328.58059614 240.34313526 324.76824103 240.30866567 320.95574951 240.26742554 C320.73399048 241.92439453 320.73399048 241.92439453 320.50775146 243.61483765 C318.85976218 254.5195558 311.67286442 264.80506126 302.95574951 271.32992554 C291.54420972 279.27295784 279.56805141 280.8854636 265.95574951 279.26742554 C253.94934837 276.53354406 243.17110596 269.51714563 236.45965576 259.13461304 C233.64555174 253.769542 229.95574951 246.41880644 229.95574951 240.26742554 C185.40574951 240.26742554 140.85574951 240.26742554 94.95574951 240.26742554 C94.62574951 242.57742554 94.29574951 244.88742554 93.95574951 247.26742554 C90.89804241 258.34917929 83.11828764 267.98822861 73.36590576 273.94711304 C62.14102895 280.09623518 48.47306748 281.8746933 35.98699951 278.27914429 C30.60492261 276.28555388 25.39477275 273.94547336 20.95574951 270.26742554 C20.95574951 269.60742554 20.95574951 268.94742554 20.95574951 268.26742554 C20.08949951 267.89617554 20.08949951 267.89617554 19.20574951 267.51742554 C16.60666293 266.07348855 14.87738113 264.53220566 12.95574951 262.26742554 C12.95574951 261.27742554 12.95574951 260.28742554 12.95574951 259.26742554 C12.29574951 259.26742554 11.63574951 259.26742554 10.95574951 259.26742554 C9.94146437 257.23281785 8.94488162 255.18937948 7.95574951 253.14242554 C7.39887451 252.00547241 6.84199951 250.86851929 6.26824951 249.69711304 C4.95069982 246.25423021 4.68997669 243.91072792 4.95574951 240.26742554 C3.92018921 240.29099121 3.92018921 240.29099121 2.8637085 240.31503296 C-0.29302637 240.37776006 -3.44962964 240.41653553 -6.60675049 240.45492554 C-7.69278564 240.48006226 -8.7788208 240.50519897 -9.89776611 240.53109741 C-16.06603076 240.58734299 -20.72569368 240.53248551 -26.04425049 237.26742554 C-29.90158534 233.44562251 -31.60680118 231.17705353 -31.71333313 225.53205872 C-31.70007492 224.8350032 -31.68681671 224.13794769 -31.67315674 223.41976929 C-31.6755687 222.68545181 -31.67798065 221.95113434 -31.6804657 221.19456482 C-31.67949108 219.65068124 -31.66618954 218.10676104 -31.64117432 216.56307983 C-31.60678744 214.20745693 -31.62054974 211.85557549 -31.63995361 209.49984741 C-31.63305608 207.99397217 -31.62338451 206.48810654 -31.61065674 204.98226929 C-31.61561661 204.28318954 -31.62057648 203.5841098 -31.62568665 202.86384583 C-31.54245213 199.38988344 -31.37401968 197.64214738 -29.04166412 194.99185562 C-26.46603496 191.47875175 -26.54706269 189.41098052 -26.55218506 185.08303833 C-26.54516658 184.01422279 -26.54516658 184.01422279 -26.53800631 182.92381501 C-26.52709313 180.54156204 -26.54454954 178.16037036 -26.56182861 175.77816772 C-26.55964223 174.0679137 -26.55564469 172.35766118 -26.54997253 170.64741516 C-26.54140947 166.96636682 -26.54518885 163.28561007 -26.55839539 159.60457611 C-26.57873831 153.77955086 -26.5687512 147.95481926 -26.55413818 142.12979126 C-26.52510259 128.70832778 -26.53582374 115.28695049 -26.54683685 101.86547089 C-26.55651777 89.57413323 -26.55775105 77.28294899 -26.52695608 64.99163747 C-26.51360491 59.20602568 -26.5195114 53.42085494 -26.54032135 47.63526964 C-26.54933085 44.02817896 -26.54181175 40.42125685 -26.52990913 36.81418037 C-26.52778498 35.14734128 -26.5324606 33.48047679 -26.54461479 31.81368065 C-26.67213557 13.2732544 -26.67213557 13.2732544 -20.3234787 6.40612411 C-14.31601827 0.68203446 -7.97745687 -0.0295689 0 0 Z " fill="#13110D" transform="translate(31.04425048828125,-0.267425537109375)"/>
<path d="M0 0 C0.89504226 -0.00538554 1.79008452 -0.01077108 2.71224928 -0.01631981 C5.71166701 -0.03062846 8.71064522 -0.02348847 11.71008301 -0.01637268 C13.86031957 -0.02207467 16.01055311 -0.02903827 18.16078186 -0.03717041 C24.00158786 -0.05513453 29.84224389 -0.05392744 35.68306923 -0.04822803 C40.55658857 -0.04514126 45.43007889 -0.05122283 50.30359411 -0.05726677 C61.79832713 -0.07132072 73.29298583 -0.0697431 84.78771973 -0.05836487 C96.65353952 -0.04687901 108.51913343 -0.06096533 120.38492346 -0.08776134 C130.56762458 -0.10989709 140.75025468 -0.11656062 150.93297815 -0.11068493 C157.01689214 -0.10730953 163.10066126 -0.10976933 169.18455505 -0.12693596 C174.90391919 -0.14236936 180.6229478 -0.13848947 186.34229851 -0.11963081 C188.4429766 -0.11593513 190.54367936 -0.11908175 192.64433479 -0.1295166 C195.50880407 -0.14266091 198.37215179 -0.13123722 201.23657227 -0.11352539 C202.07071514 -0.1231304 202.90485801 -0.1327354 203.76427794 -0.14263147 C207.66412978 -0.09290753 209.71145241 0.15103749 213.153862 2.15338039 C215.11828613 4.38768005 215.11828613 4.38768005 215.60656738 6.52830505 C215.44380697 8.48143005 215.28104655 10.43455505 215.11828613 12.38768005 C213.83233551 12.39576691 212.54638489 12.40385376 211.22146606 12.41218567 C199.1253276 12.48954105 187.02930309 12.57725313 174.93331337 12.67520714 C168.71406934 12.72523529 162.49484284 12.77156462 156.2755127 12.80955505 C150.27784846 12.84632565 144.28032862 12.89266286 138.28278732 12.94574356 C135.99019265 12.96433138 133.69756697 12.97942295 131.4049263 12.99102402 C128.20327085 13.00781157 125.00194933 13.03682812 121.80041504 13.0688324 C120.36651176 13.07207268 120.36651176 13.07207268 118.90364075 13.07537842 C118.03423355 13.0865419 117.16482635 13.09770538 116.26907349 13.10920715 C115.13250274 13.11750329 115.13250274 13.11750329 113.97297096 13.12596703 C111.87224803 13.23280491 111.87224803 13.23280491 110.11828613 15.38768005 C110.21523729 19.72962941 110.21523729 19.72962941 112.11828613 23.38768005 C113.45854156 23.49500439 114.80432191 23.53446286 116.14881897 23.54589844 C117.01503907 23.55567246 117.88125917 23.56544649 118.77372837 23.5755167 C120.2157432 23.58417208 120.2157432 23.58417208 121.68688965 23.59300232 C123.21850314 23.6080514 123.21850314 23.6080514 124.78105831 23.6234045 C128.10307953 23.65491498 131.42511263 23.67961217 134.74719238 23.7040863 C136.7914266 23.72247818 138.83565688 23.74131422 140.87988281 23.76060486 C148.48013716 23.82919075 156.08046732 23.88915485 163.68078613 23.95018005 C180.65516113 24.09455505 197.62953613 24.23893005 215.11828613 24.38768005 C215.11828613 74.21768005 215.11828613 124.04768005 215.11828613 175.38768005 C139.54828613 175.38768005 63.97828613 175.38768005 -13.88171387 175.38768005 C-13.88171387 125.55768005 -13.88171387 75.72768005 -13.88171387 24.38768005 C37.43078613 24.07518005 37.43078613 24.07518005 53.64294434 23.9997406 C58.43161885 23.96318349 58.43161885 23.96318349 63.22026062 23.92266846 C65.35592773 23.90650081 67.49164431 23.89622465 69.62736511 23.89056396 C72.8593904 23.88086048 76.09076643 23.85256359 79.32263184 23.8200531 C80.75385234 23.82219204 80.75385234 23.82219204 82.2139864 23.8243742 C83.08296149 23.81184518 83.95193659 23.79931616 84.84724426 23.78640747 C85.6040363 23.78179851 86.36082834 23.77718954 87.14055347 23.77244091 C89.6829564 23.27782546 90.60081642 22.46307836 92.11828613 20.38768005 C92.04286272 17.26774399 92.04286272 17.26774399 91.11828613 14.38768005 C88.76134074 13.20920736 87.33069786 13.25042138 84.70175171 13.22946167 C83.77344543 13.21967285 82.84513916 13.20988403 81.88870239 13.19979858 C80.86731171 13.19404312 79.84592102 13.18828766 78.7935791 13.18235779 C77.72039429 13.17245819 76.64720947 13.16255859 75.54150391 13.15235901 C71.98118321 13.12067847 68.42084914 13.09596067 64.86047363 13.0712738 C62.3971013 13.05070994 59.93373253 13.02971362 57.47036743 13.00830078 C50.97665292 12.95302153 44.48290626 12.90363809 37.98913574 12.85545349 C31.36679207 12.80528116 24.74449527 12.74957285 18.12219238 12.69432068 C5.12093058 12.58666753 -7.8803712 12.48505062 -20.88171387 12.38768005 C-21.03796387 5.69236755 -21.03796387 5.69236755 -19.63171387 2.95018005 C-17.88171387 1.38768005 -17.88171387 1.38768005 -13.88171387 1.38768005 C-13.88171387 2.04768005 -13.88171387 2.70768005 -13.88171387 3.38768005 C-12.91899189 2.65717391 -12.91899189 2.65717391 -11.93682098 1.91191006 C-7.84686633 -0.12861793 -4.50843514 -0.03248352 0 0 Z " fill="#FE646E" transform="translate(31.8817138671875,12.612319946289063)"/>
<path d="M0 0 C24.09 0 48.18 0 73 0 C75 4 75 4 75.4375 7.3125 C76.04613826 11.30246196 77.38348982 14.31435679 79 18 C79.4642394 19.84640672 79.92591056 21.69350758 80.37280273 23.54418945 C81.68945526 28.69958368 83.28423717 33.77924327 84.8125 38.875 C85.52809813 41.28753678 86.24294036 43.70029791 86.95703125 46.11328125 C87.91851615 49.36057725 88.88132383 52.60721757 89.86083984 55.84912109 C90.5860426 58.25018572 91.29514262 60.65540019 92 63.0625 C92.20729736 63.73200684 92.41459473 64.40151367 92.62817383 65.09130859 C94.1612338 70.41921059 94.20335543 75.4804534 94 81 C89.01966228 81.14922647 84.04064804 81.25762257 79.05859375 81.32958984 C77.36695668 81.35961317 75.67547333 81.40044638 73.984375 81.45263672 C58.10782599 81.93005653 58.10782599 81.93005653 53.0546875 78.00390625 C52.51827637 77.45549072 51.98186523 76.9070752 51.42919922 76.34204102 C49.91055878 74.65373642 49.91055878 74.65373642 46.625 74.5625 C44.02910225 74.86291311 44.02910225 74.86291311 42 76 C37.73071701 73.25546093 33.68220293 70.50738024 30 67 C29.5546875 64.8671875 29.5546875 64.8671875 29.875 62.875 C29.91625 61.59625 29.9575 60.3175 30 59 C22.86744466 52.17123868 16.5027312 50.80992891 7.03320312 50.39453125 C1.1006921 50.1006921 1.1006921 50.1006921 0 49 C-0.09319449 47.4651703 -0.117458 45.92607918 -0.11352539 44.38842773 C-0.11334412 42.89635803 -0.11334412 42.89635803 -0.11315918 41.37414551 C-0.10804321 40.32126343 -0.10292725 39.26838135 -0.09765625 38.18359375 C-0.09664917 37.22134888 -0.09564209 36.259104 -0.09460449 35.2677002 C-0.0893546 31.65762142 -0.07539348 28.04755957 -0.0625 24.4375 C-0.041875 16.373125 -0.02125 8.30875 0 0 Z " fill="#40C0F8" transform="translate(289,88)"/>
<path d="M0 0 C6.27 0 12.54 0 19 0 C19.00410889 1.57934326 19.00821777 3.15868652 19.01245117 4.78588867 C19.0342281 10.6473857 19.0885044 16.50821011 19.15258789 22.36938477 C19.17578018 24.90577751 19.19016645 27.44226672 19.19555664 29.97875977 C19.20483658 33.62577524 19.24581053 37.27127064 19.29296875 40.91796875 C19.2890361 42.05147263 19.28510345 43.1849765 19.28105164 44.35282898 C19.33858244 50.70157577 19.33858244 50.70157577 22.35668945 56.13012695 C27.28765658 59.61828408 30.26974351 60.22205118 36.1875 60.3125 C42.338278 60.51318107 46.50447972 61.0373979 51.4921875 64.91796875 C53.08588215 66.24172804 53.08588215 66.24172804 55.875 66.375 C58.04533618 66.09606952 58.04533618 66.09606952 60 65 C62.02291997 66.32754123 64.01352401 67.68225711 66 69.0625 C66.57234375 69.43310547 67.1446875 69.80371094 67.734375 70.18554688 C69.375 71.34765625 69.375 71.34765625 72 74 C72.3125 77.62109375 72.3125 77.62109375 72 81 C72.65071715 84.07780735 72.65071715 84.07780735 74.84594727 85.02661133 C75.55678467 85.34782959 76.26762207 85.66904785 77 86 C77.54003662 86.41596436 78.08007324 86.83192871 78.63647461 87.26049805 C86.71912124 93.06804532 97.06540893 91.78511173 106.5625 91.8125 C108.44859631 91.83566912 110.33466693 91.86103944 112.22070312 91.88867188 C116.81389795 91.95120972 121.40641757 91.98379296 126 92 C126 95.63 126 99.26 126 103 C124.97519531 103.02578125 123.95039063 103.0515625 122.89453125 103.078125 C121.53381301 103.13443058 120.17313757 103.19177737 118.8125 103.25 C118.13896484 103.26417969 117.46542969 103.27835937 116.77148438 103.29296875 C111.92660746 103.52930421 109.41444912 104.57930874 106 108 C103.67547376 111.48678936 103.70226266 113.06967571 103.5859375 117.19921875 C103.54726563 118.40771484 103.50859375 119.61621094 103.46875 120.86132812 C103.4378125 122.12396484 103.406875 123.38660156 103.375 124.6875 C103.33632813 125.96173828 103.29765625 127.23597656 103.2578125 128.54882812 C103.16342314 131.69907292 103.0778417 134.84930991 103 138 C99.37 138 95.74 138 92 138 C91.79246094 137.17757812 91.58492188 136.35515625 91.37109375 135.5078125 C88.0407051 123.44037914 82.2880043 114.33692859 72 107 C60.93542186 100.8136851 46.39779407 98.21823995 33.89746094 101.5625 C23.00908836 105.60377192 13.94188585 113.09122889 8.28515625 123.19140625 C5.95635688 128.28078846 4.43844935 133.60158421 3 139 C2.01 139 1.02 139 0 139 C0 93.13 0 47.26 0 0 Z " fill="#FAD402" transform="translate(259,89)"/>
<path d="M0 0 C3.1875 1.9375 3.1875 1.9375 6 4 C7.2684375 4.8353125 7.2684375 4.8353125 8.5625 5.6875 C13.68776602 10.54993186 17.53823831 18.10661982 18.37109375 25.12890625 C18.58033105 35.94770565 16.3009324 44.78645105 9 53 C-0.03794631 60.37306147 -8.5144104 62.83617593 -20.07421875 62.421875 C-25.57216323 61.83105112 -29.47150749 60.08189073 -34 57 C-34.886875 56.443125 -35.77375 55.88625 -36.6875 55.3125 C-44.59734722 47.40265278 -47.95104311 40.05913067 -48.3125 29.0625 C-48.08882921 19.17128082 -44.93155802 12.10518086 -38 5 C-27.1880777 -3.79996458 -12.76298138 -6.49751779 0 0 Z " fill="#080706" transform="translate(96,204)"/>
<path d="M0 0 C5.87511665 4.77561467 11.21488348 10.94638381 12.81640625 18.4921875 C13.66427709 29.32132269 14.03786242 38.66104069 6.81640625 47.4921875 C0.11420081 54.63642788 -6.49128729 58.99373732 -16.3828125 59.73046875 C-27.22994044 59.96125871 -35.31008877 58.1805654 -43.359375 50.62109375 C-50.58653617 42.18682643 -52.58752828 33.6776358 -52.453125 22.83984375 C-51.70291469 13.52201424 -47.05073148 6.63264399 -40.18359375 0.4921875 C-28.33952365 -7.90487743 -12.01856941 -8.29904793 0 0 Z " fill="#090906" transform="translate(326.18359375,206.5078125)"/>
<path d="M0 0 C44.22 0 88.44 0 134 0 C134 8.58 134 17.16 134 26 C93.74 26 53.48 26 12 26 C10.68 21.71 9.36 17.42 8 13 C6.25799287 9.48595779 6.25799287 9.48595779 4.3125 6.8125 C3.40951172 5.49185547 3.40951172 5.49185547 2.48828125 4.14453125 C1.99714844 3.43683594 1.50601563 2.72914063 1 2 C0.67 1.34 0.34 0.68 0 0 Z " fill="#DEEAF9" transform="translate(113,201)"/>
<path d="M0 0 C6.93 0 13.86 0 21 0 C21 49.83 21 99.66 21 151 C14.07 151 7.14 151 0 151 C0 101.17 0 51.34 0 0 Z " fill="#FD4D5D" transform="translate(18,37)"/>
<path d="M0 0 C0.89504226 -0.00538554 1.79008452 -0.01077108 2.71224928 -0.01631981 C5.71166701 -0.03062846 8.71064522 -0.02348847 11.71008301 -0.01637268 C13.86031957 -0.02207467 16.01055311 -0.02903827 18.16078186 -0.03717041 C24.00158786 -0.05513453 29.84224389 -0.05392744 35.68306923 -0.04822803 C40.55658857 -0.04514126 45.43007889 -0.05122283 50.30359411 -0.05726677 C61.79832713 -0.07132072 73.29298583 -0.0697431 84.78771973 -0.05836487 C96.65353952 -0.04687901 108.51913343 -0.06096533 120.38492346 -0.08776134 C130.56762458 -0.10989709 140.75025468 -0.11656062 150.93297815 -0.11068493 C157.01689214 -0.10730953 163.10066126 -0.10976933 169.18455505 -0.12693596 C174.90391919 -0.14236936 180.6229478 -0.13848947 186.34229851 -0.11963081 C188.4429766 -0.11593513 190.54367936 -0.11908175 192.64433479 -0.1295166 C195.50880407 -0.14266091 198.37215179 -0.13123722 201.23657227 -0.11352539 C202.07071514 -0.1231304 202.90485801 -0.1327354 203.76427794 -0.14263147 C207.66412978 -0.09290753 209.71145241 0.15103749 213.153862 2.15338039 C215.11828613 4.38768005 215.11828613 4.38768005 215.60656738 6.52830505 C215.44380697 8.48143005 215.28104655 10.43455505 215.11828613 12.38768005 C213.19269112 12.38981758 213.19269112 12.38981758 211.22819519 12.39199829 C199.14699975 12.40864722 187.06614206 12.4513564 174.98512554 12.51977062 C168.77368501 12.55410299 162.56249207 12.57916035 156.35095215 12.58323669 C150.35961183 12.58750619 144.36883064 12.61585713 138.37766457 12.66111183 C136.08869492 12.67413001 133.79965851 12.67837934 131.51065636 12.67383385 C128.31113218 12.66895869 125.1132617 12.69488421 121.91394043 12.72825623 C120.96160019 12.71963058 120.00925995 12.71100494 119.02806091 12.70211792 C116.61756362 12.74443669 114.45782249 12.80473711 112.11828613 13.38768005 C110.1857473 15.7871997 110.1857473 15.7871997 109.11828613 18.38768005 C106.17735561 18.76627564 103.84183656 18.86543619 100.93078613 18.70018005 C100.18119629 18.67762146 99.43160645 18.65506287 98.65930176 18.63182068 C96.81144144 18.57297162 94.96460946 18.48328943 93.11828613 18.38768005 C92.82953613 17.74830505 92.54078613 17.10893005 92.24328613 16.45018005 C91.29005162 14.23561926 91.29005162 14.23561926 89.11828613 13.38768005 C87.64882157 13.28393111 86.1748274 13.24120601 84.70175171 13.22946167 C83.77344543 13.21967285 82.84513916 13.20988403 81.88870239 13.19979858 C80.86731171 13.19404312 79.84592102 13.18828766 78.7935791 13.18235779 C77.72039429 13.17245819 76.64720947 13.16255859 75.54150391 13.15235901 C71.98118321 13.12067847 68.42084914 13.09596067 64.86047363 13.0712738 C62.3971013 13.05070994 59.93373253 13.02971362 57.47036743 13.00830078 C50.97665292 12.95302153 44.48290626 12.90363809 37.98913574 12.85545349 C31.36679207 12.80528116 24.74449527 12.74957285 18.12219238 12.69432068 C5.12093058 12.58666753 -7.8803712 12.48505062 -20.88171387 12.38768005 C-21.03796387 5.69236755 -21.03796387 5.69236755 -19.63171387 2.95018005 C-17.88171387 1.38768005 -17.88171387 1.38768005 -13.88171387 1.38768005 C-13.88171387 2.04768005 -13.88171387 2.70768005 -13.88171387 3.38768005 C-12.91899189 2.65717391 -12.91899189 2.65717391 -11.93682098 1.91191006 C-7.84686633 -0.12861793 -4.50843514 -0.03248352 0 0 Z " fill="#FD4655" transform="translate(31.8817138671875,12.612319946289063)"/>
<path d="M0 0 C6.27 0 12.54 0 19 0 C19.00410889 1.57934326 19.00821777 3.15868652 19.01245117 4.78588867 C19.0342281 10.6473857 19.0885044 16.50821011 19.15258789 22.36938477 C19.17578018 24.90577751 19.19016645 27.44226672 19.19555664 29.97875977 C19.20483658 33.62577524 19.24581053 37.27127064 19.29296875 40.91796875 C19.2890361 42.05147263 19.28510345 43.1849765 19.28105164 44.35282898 C19.29737288 50.74795282 19.29737288 50.74795282 22.54418945 56.06762695 C23.35460693 56.70531006 24.16502441 57.34299316 25 58 C25 58.99 25 59.98 25 61 C25.04353627 62.45357816 25.09169526 63.90702059 25.14282227 65.36035156 C25.30498713 70.26234598 25.4088651 75.16398365 25.49438477 80.06787109 C25.53965041 82.18253945 25.60107436 84.29692605 25.67895508 86.41064453 C26.31169978 104.05305558 26.31169978 104.05305558 23.08837891 108.83740234 C20.79333385 110.59210571 18.58360851 111.73421437 16 113 C8.89850291 120.11157848 5.20875977 129.29555547 3 139 C2.01 139 1.02 139 0 139 C0 93.13 0 47.26 0 0 Z " fill="#F7C40E" transform="translate(259,89)"/>
<path d="M0 0 C1.25283279 -0.0033284 2.50566559 -0.0066568 3.79646301 -0.01008606 C6.42770015 -0.01511958 9.0589436 -0.0174955 11.69018555 -0.01733398 C14.3735217 -0.0172523 17.05668868 -0.02426966 19.73999023 -0.0378418 C23.63921267 -0.05618379 27.53823871 -0.06107058 31.4375 -0.0625 C33.22682198 -0.07327827 33.22682198 -0.07327827 35.05229187 -0.08427429 C43.75461245 -0.06047735 50.77950219 0.11922472 57.51953125 6.16796875 C58.72114062 7.01096864 59.92989851 7.84384424 61.14453125 8.66796875 C63.81084891 10.5558843 65.84158104 12.3055831 67.51953125 15.16796875 C67.51953125 15.82796875 67.51953125 16.48796875 67.51953125 17.16796875 C58.30301745 17.32393176 49.08641679 17.47204128 39.86962986 17.61093235 C35.58692721 17.67569952 31.3042945 17.74287423 27.02172852 17.81616211 C7.47711322 18.14883356 -11.95303542 18.27954996 -31.48046875 17.16796875 C-31.48046875 12.87796875 -31.48046875 8.58796875 -31.48046875 4.16796875 C-29.50046875 4.16796875 -27.52046875 4.16796875 -25.48046875 4.16796875 C-25.15046875 3.17796875 -24.82046875 2.18796875 -24.48046875 1.16796875 C-16.30516598 0.26746338 -8.22090337 0.00770842 0 0 Z " fill="#FEFEAE" transform="translate(290.48046875,60.83203125)"/>
<path d="M0 0 C2.31 0 4.62 0 7 0 C7 49.83 7 99.66 7 151 C82.57 151 158.14 151 236 151 C236 151.33 236 151.66 236 152 C206.07941277 152.02279001 176.15882584 152.04049799 146.23823181 152.05106533 C142.70952106 152.05231611 139.18081033 152.05361042 135.65209961 152.05493164 C134.94956745 152.05519395 134.24703529 152.05545626 133.52321427 152.05572652 C122.13310082 152.06008329 110.74299239 152.06797087 99.35288192 152.0771528 C87.67419914 152.08648915 75.9955193 152.09198067 64.31683296 152.09408849 C57.75347426 152.09539605 51.19012698 152.09848469 44.62677193 152.10573006 C38.45699264 152.11248616 32.28722953 152.1146178 26.1174469 152.11310768 C23.8457728 152.11338419 21.5740982 152.11539173 19.30242729 152.11920547 C16.215519 152.12413633 13.12867286 152.12300055 10.04176331 152.12025452 C9.1303033 152.12316736 8.21884329 152.1260802 7.27976328 152.12908131 C1.11412121 152.11412121 1.11412121 152.11412121 0 151 C-0.09664967 149.05105041 -0.12187121 147.09854545 -0.12025452 145.14720154 C-0.12162918 143.87528961 -0.12300385 142.60337769 -0.12442017 141.29292297 C-0.12088055 139.87033058 -0.11724573 138.44773842 -0.11352539 137.02514648 C-0.11324353 135.53733319 -0.11340124 134.04951976 -0.1139679 132.56170654 C-0.1142559 128.51023 -0.10835867 124.4587828 -0.10139394 120.40731311 C-0.09516092 116.17788003 -0.09455664 111.94844636 -0.09336853 107.7190094 C-0.09025506 99.70440278 -0.08204146 91.68980973 -0.07201904 83.67520911 C-0.06085839 74.55323316 -0.05534758 65.43125658 -0.05032361 56.30927551 C-0.03985886 37.5395093 -0.02225912 18.76975574 0 0 Z " fill="#7F2B2F" transform="translate(11,37)"/>
<path d="M0 0 C5.28 0 10.56 0 16 0 C16.66 16.17 17.32 32.34 18 49 C12.06 48.67 6.12 48.34 0 48 C0 32.16 0 16.32 0 0 Z " fill="#29BAFE" transform="translate(290,90)"/>
<path d="M0 0 C1.51815699 0.00015911 3.0363194 0.00585313 4.55444336 0.01586914 C5.35208603 0.01728409 6.1497287 0.01869904 6.97154236 0.02015686 C9.52916146 0.02577223 12.08669429 0.03832727 14.64428711 0.05102539 C16.37410356 0.05603841 18.10392137 0.06060166 19.83374023 0.06469727 C24.08312264 0.07574664 28.33244023 0.09302153 32.58178711 0.11352539 C32.10402832 0.84522949 31.62626953 1.57693359 31.1340332 2.33081055 C30.50577637 3.30324707 29.87751953 4.27568359 29.23022461 5.27758789 C28.60809082 6.23616699 27.98595703 7.19474609 27.3449707 8.18237305 C23.92934758 13.86057454 21.83157793 19.63367547 20.58178711 26.11352539 C16.60263552 26.14239523 12.62351058 26.16027945 8.64428711 26.17602539 C6.93982422 26.18859375 6.93982422 26.18859375 5.20092773 26.20141602 C4.12133789 26.20463867 3.04174805 26.20786133 1.92944336 26.21118164 C0.42909546 26.21903687 0.42909546 26.21903687 -1.1015625 26.22705078 C-3.41821289 26.11352539 -3.41821289 26.11352539 -4.41821289 25.11352539 C-4.51767742 23.34493346 -4.54901506 21.57241088 -4.55102539 19.80102539 C-4.55231445 18.72594727 -4.55360352 17.65086914 -4.55493164 16.54321289 C-4.54913086 14.84551758 -4.54913086 14.84551758 -4.54321289 13.11352539 C-4.54708008 11.98172852 -4.55094727 10.84993164 -4.55493164 9.68383789 C-4.55364258 8.60875977 -4.55235352 7.53368164 -4.55102539 6.42602539 C-4.54989746 5.4321582 -4.54876953 4.43829102 -4.54760742 3.41430664 C-4.33894503 -0.29594699 -3.84916961 0.12783829 0 0 Z " fill="#B0DAFB" transform="translate(16.418212890625,200.886474609375)"/>
<path d="M0 0 C4.41933155 1.56376347 8.11267686 3.68679636 11.90625 6.46875 C12.751875 7.025625 13.5975 7.5825 14.46875 8.15625 C19.59401602 13.01868186 23.44448831 20.57536982 24.27734375 27.59765625 C24.48658105 38.41645565 22.2071824 47.25520105 14.90625 55.46875 C7.88564299 61.19608729 0.16421331 65.18504471 -9.0390625 64.8984375 C-12.47413026 64.18007732 -14.07557264 62.20305481 -16.09375 59.46875 C-16.09375 58.80875 -16.09375 58.14875 -16.09375 57.46875 C-15.04316406 57.39398438 -13.99257812 57.31921875 -12.91015625 57.2421875 C-4.49350918 56.51030515 2.67116927 55.75888663 8.90625 49.46875 C15.01481511 41.644462 15.82440161 34.26948465 14.90625 24.46875 C12.78511291 17.58992223 8.1388434 12.90625631 1.90625 9.46875 C-2.42174183 7.75072281 -6.33220658 7.12762001 -10.96875 6.84375 C-12.12117188 6.76898438 -13.27359375 6.69421875 -14.4609375 6.6171875 C-15.76417969 6.54371094 -15.76417969 6.54371094 -17.09375 6.46875 C-11.99989617 0.16845711 -8.38171913 -2.12670485 0 0 Z " fill="#615963" transform="translate(90.09375,201.53125)"/>
<path d="M0 0 C9.83532741 3.47484686 16.59996455 10.19976873 21.48046875 19.3359375 C23.98939767 27.91829667 24.13851539 39.41692186 20.04296875 47.4609375 C15.04486303 55.1412418 8.00381335 61.4476009 -0.89453125 64.0234375 C-10.13049961 65.12295754 -10.13049961 65.12295754 -13.3671875 63.2890625 C-15.01953125 61.9609375 -15.01953125 61.9609375 -17.51953125 59.3359375 C-17.51953125 58.6759375 -17.51953125 58.0159375 -17.51953125 57.3359375 C-16.7203125 57.33335937 -15.92109375 57.33078125 -15.09765625 57.328125 C-5.92859395 57.00527069 2.42642363 55.15824693 9.26953125 48.62890625 C14.30310796 42.10880542 15.29668308 34.34739507 14.48046875 26.3359375 C12.56559868 18.31305123 8.40326644 13.6242267 1.48046875 9.3515625 C-2.63219442 7.26310074 -6.7043018 7.09300356 -11.26953125 6.7734375 C-12.44 6.68964844 -13.61046875 6.60585937 -14.81640625 6.51953125 C-15.7084375 6.45894531 -16.60046875 6.39835938 -17.51953125 6.3359375 C-17.51953125 4.3359375 -17.51953125 4.3359375 -15.08203125 1.7109375 C-10.33187806 -2.03801245 -5.61702015 -1.48045492 0 0 Z " fill="#635C64" transform="translate(316.51953125,201.6640625)"/>
<path d="M0 0 C3.3956697 -0.08745946 6.79104773 -0.14054444 10.1875 -0.1875 C11.14720703 -0.21263672 12.10691406 -0.23777344 13.09570312 -0.26367188 C22.34026559 -0.35963619 22.34026559 -0.35963619 26 3 C27.22265625 5.2421875 27.22265625 5.2421875 28.0625 7.875 C28.37832031 8.85597656 28.69414062 9.83695313 29.01953125 10.84765625 C29.34308594 11.88792969 29.66664063 12.92820312 30 14 C30.37511719 15.02996094 30.75023437 16.05992188 31.13671875 17.12109375 C33.96439778 25.22710697 34.46129291 32.45326749 34 41 C30.95016004 42.52491998 28.3576631 42.23562548 25 42 C22.08522402 39.8200006 21.24302845 37.4102343 20.17578125 34 C19.86962891 33.030625 19.56347656 32.06125 19.24804688 31.0625 C18.78495117 29.5465625 18.78495117 29.5465625 18.3125 28 C17.99216797 26.989375 17.67183594 25.97875 17.34179688 24.9375 C15 17.42777186 15 17.42777186 15 14 C11.37 14 7.74 14 4 14 C2.1222256 9.26474281 0.74679598 5.06081162 0 0 Z " fill="#FEFEFE" transform="translate(375,90)"/>
<path d="M0 0 C9.31853458 -0.04633734 18.6370295 -0.08187631 27.95565414 -0.10362434 C32.28265197 -0.11406222 36.60957097 -0.1282215 40.93652344 -0.15087891 C45.11215235 -0.17260714 49.28770545 -0.1845686 53.46338654 -0.18975449 C55.05659427 -0.19345028 56.64979786 -0.2006672 58.24297333 -0.21146011 C60.47424798 -0.22597485 62.70520918 -0.22797796 64.93652344 -0.22705078 C66.84180817 -0.23371262 66.84180817 -0.23371262 68.7855835 -0.24050903 C71.80432598 -0.01464072 73.47455016 0.4025924 76 2 C75.01 3.98 74.02 5.96 73 8 C73.66 8 74.32 8 75 8 C75.495 9.485 75.495 9.485 76 11 C76.99 11.495 76.99 11.495 78 12 C78.625 14.5625 78.625 14.5625 79 17 C76.0280615 15.87548273 73.66559313 14.77706209 71 13 C71 12.34 71 11.68 71 11 C63.08797451 9.03977974 55.4636578 8.66307791 47.3359375 8.5859375 C46.06271637 8.56657135 44.78949524 8.5472052 43.47769165 8.5272522 C40.12739362 8.477929 36.77719596 8.43652546 33.42675781 8.39910889 C29.9940446 8.35877328 26.56148981 8.30781743 23.12890625 8.2578125 C16.41937353 8.16219302 9.70977054 8.07702898 3 8 C0 2.25 0 2.25 0 0 Z " fill="#050422" transform="translate(274,53)"/>
<path d="M0 0 C-0.825 0.763125 -1.65 1.52625 -2.5 2.3125 C-5.34055197 4.75434142 -5.34055197 4.75434142 -5 8 C-5.65226562 8.27972656 -6.30453125 8.55945313 -6.9765625 8.84765625 C-13.89039382 12.01904496 -18.72860611 15.37075779 -22.12890625 22.30078125 C-24.42395037 29.41233051 -24.06711338 37.69451947 -21 44.5 C-17.51341303 50.48826237 -12.65319541 54.40867099 -6 56.375 C-5.01 56.58125 -4.02 56.7875 -3 57 C-4.485 57.495 -4.485 57.495 -6 58 C-4.35 60.31 -2.7 62.62 -1 65 C-8.76577652 65.84410614 -14.26020268 62.34824483 -20.6875 58.3125 C-28.59734722 50.40265278 -31.95104311 43.05913067 -32.3125 32.0625 C-32.08882921 22.17128082 -28.93155802 15.10518086 -22 8 C-15.11555813 2.39666296 -8.98834436 -0.35953377 0 0 Z " fill="#504A51" transform="translate(80,201)"/>
<path d="M0 0 C-1.28965176 1.37562854 -2.62689293 2.70766393 -4 4 C-4.66 4 -5.32 4 -6 4 C-6 4.66 -6 5.32 -6 6 C-5.34 6.33 -4.68 6.66 -4 7 C-4.556875 7.18433594 -5.11375 7.36867187 -5.6875 7.55859375 C-13.57628645 10.55686563 -18.9983497 15.57968891 -22.5 23.3125 C-24.06093357 34.3753137 -24.06093357 34.3753137 -19.875 44.4375 C-14.60735656 51.01413701 -10.38603269 54.40954552 -2 56 C-3.98 56.495 -3.98 56.495 -6 57 C-5.195625 57.78375 -4.39125 58.5675 -3.5625 59.375 C-1 62 -1 62 0 64 C-8.83923603 63.96238623 -15.28569927 61.32987278 -21.8203125 55.328125 C-29.37824624 47.0485795 -31.40603924 38.35516421 -31.26953125 27.34765625 C-30.51932094 18.02982674 -25.86713773 11.14045649 -19 5 C-13.31235021 0.96763915 -7.03691229 -2.43585425 0 0 Z " fill="#524B52" transform="translate(305,202)"/>
<path d="M0 0 C0.89857009 -0.00256327 1.79714018 -0.00512655 2.72293967 -0.0077675 C5.73406997 -0.01270915 8.74469896 0.003794 11.75578308 0.02018738 C13.9141285 0.02103357 16.07247478 0.02055867 18.2308197 0.01885986 C24.09198243 0.01799817 29.95296144 0.03565229 35.81408143 0.05658174 C41.93865674 0.07531941 48.06323614 0.07709668 54.18783569 0.08065796 C65.78643914 0.08998697 77.38495789 0.11461239 88.98352402 0.14470643 C102.18772993 0.17822376 115.39193985 0.19472975 128.5961777 0.20979273 C155.75904561 0.24116114 182.92183832 0.29393834 210.0846405 0.36076355 C210.0846405 0.69076355 210.0846405 1.02076355 210.0846405 1.36076355 C143.4246405 1.69076355 76.7646405 2.02076355 8.0846405 2.36076355 C7.7546405 5.33076355 7.4246405 8.30076355 7.0846405 11.36076355 C34.1446405 11.36076355 61.2046405 11.36076355 89.0846405 11.36076355 C89.0846405 11.69076355 89.0846405 12.02076355 89.0846405 12.36076355 C52.7846405 12.36076355 16.4846405 12.36076355 -20.9153595 12.36076355 C-20.9153595 5.36076355 -20.9153595 5.36076355 -19.6653595 2.92326355 C-17.9153595 1.36076355 -17.9153595 1.36076355 -13.9153595 1.36076355 C-13.9153595 2.02076355 -13.9153595 2.68076355 -13.9153595 3.36076355 C-13.27423879 2.8732043 -12.63311808 2.38564505 -11.97256947 1.88331127 C-7.86923926 -0.16022389 -4.52100572 -0.04716943 0 0 Z " fill="#C22B35" transform="translate(31.915359497070313,12.639236450195313)"/>
<path d="M0 0 C4.38609057 2.23950811 6.52386959 4.51441912 8.09375 9.31640625 C8.79542781 13.70189258 8.43947259 16.58347436 6.53125 20.62890625 C3.10514123 24.40641079 -0.02011283 26.05997246 -5.1484375 26.515625 C-9.59518198 26.37338907 -12.30280933 25.506193 -15.40625 22.25390625 C-18.33757849 18.28847021 -18.90625 15.21986792 -18.90625 10.31640625 C-17.85759767 5.80720125 -15.34179915 3.33298599 -11.90625 0.31640625 C-7.82470111 -1.04411005 -4.14036951 -1.48476366 0 0 Z " fill="#ADD6F5" transform="translate(311.90625,220.68359375)"/>
<path d="M0 0 C4.6424664 1.6962858 7.62741674 3.61984628 10 8 C10.72480586 12.43689569 11.03984968 16.84359042 9.046875 20.9765625 C6.54862761 24.18633604 3.92306702 26.06593642 0 27 C-4.24450609 27.46303703 -6.43631522 27.29268248 -10.25 25.3125 C-13.78879138 22.33669816 -15.60588831 20.3407846 -16.38671875 15.703125 C-16.72146423 10.79352461 -16.35013685 7.76192878 -13.125 3.9375 C-9.13909161 -0.15431417 -5.62703272 -0.57740075 0 0 Z " fill="#ADD5F5" transform="translate(84,220)"/>
<path d="M0 0 C1.25283279 -0.0033284 2.50566559 -0.0066568 3.79646301 -0.01008606 C6.42770015 -0.01511958 9.0589436 -0.0174955 11.69018555 -0.01733398 C14.3735217 -0.0172523 17.05668868 -0.02426966 19.73999023 -0.0378418 C23.63921267 -0.05618379 27.53823871 -0.06107058 31.4375 -0.0625 C33.22682198 -0.07327827 33.22682198 -0.07327827 35.05229187 -0.08427429 C41.87631408 -0.06561365 48.28982589 0.05311607 54.51953125 3.16796875 C54.51953125 3.82796875 54.51953125 4.48796875 54.51953125 5.16796875 C26.46953125 5.16796875 -1.58046875 5.16796875 -30.48046875 5.16796875 C-30.48046875 8.79796875 -30.48046875 12.42796875 -30.48046875 16.16796875 C1.85953125 15.83796875 34.19953125 15.50796875 67.51953125 15.16796875 C67.51953125 15.82796875 67.51953125 16.48796875 67.51953125 17.16796875 C58.30301745 17.32393176 49.08641679 17.47204128 39.86962986 17.61093235 C35.58692721 17.67569952 31.3042945 17.74287423 27.02172852 17.81616211 C7.47711322 18.14883356 -11.95303542 18.27954996 -31.48046875 17.16796875 C-31.48046875 12.87796875 -31.48046875 8.58796875 -31.48046875 4.16796875 C-29.50046875 4.16796875 -27.52046875 4.16796875 -25.48046875 4.16796875 C-25.15046875 3.17796875 -24.82046875 2.18796875 -24.48046875 1.16796875 C-16.30516598 0.26746338 -8.22090337 0.00770842 0 0 Z " fill="#B1B174" transform="translate(290.48046875,60.83203125)"/>
<path d="M0 0 C7.4765948 -0.4419662 12.9547573 -0.64365247 19 4 C19.72574219 4.5053125 20.45148438 5.010625 21.19921875 5.53125 C25.28291063 8.43900966 25.28291063 8.43900966 27 10 C27 10.66 27 11.32 27 12 C27.56074219 12.23589844 28.12148438 12.47179687 28.69921875 12.71484375 C31 14 31 14 33.20703125 16.12890625 C42.85948615 25.1446175 53.39829296 24.33474285 66 24 C66 24.33 66 24.66 66 25 C61.01966228 25.14922647 56.04064804 25.25762257 51.05859375 25.32958984 C49.36695668 25.35961317 47.67547333 25.40044638 45.984375 25.45263672 C30.10782599 25.93005653 30.10782599 25.93005653 25.0546875 22.00390625 C24.51827637 21.45549072 23.98186523 20.9070752 23.42919922 20.34204102 C21.91055878 18.65373642 21.91055878 18.65373642 18.625 18.5625 C16.02910225 18.86291311 16.02910225 18.86291311 14 20 C2.51714551 12.61816497 2.51714551 12.61816497 1.2734375 8.7265625 C1.375 6.625 1.375 6.625 2 3 C1.34 2.01 0.68 1.02 0 0 Z " fill="#0F9CF7" transform="translate(317,144)"/>
<path d="M0 0 C3.63 0 7.26 0 11 0 C11.08078777 3.43796837 11.14039791 6.87404727 11.1875 10.3125 C11.22520508 11.77719727 11.22520508 11.77719727 11.26367188 13.27148438 C11.27817383 14.67817383 11.27817383 14.67817383 11.29296875 16.11328125 C11.31653442 17.40939331 11.31653442 17.40939331 11.34057617 18.73168945 C11 21 11 21 9.98168945 22.80541992 C8 24 8 24 0 24 C0 16.08 0 8.16 0 0 Z " fill="#F34452" transform="translate(374,204)"/>
<path d="M0 0 C7.59 0 15.18 0 23 0 C23 3.63 23 7.26 23 11 C15.41 11 7.82 11 0 11 C0 7.37 0 3.74 0 0 Z " fill="#FEFC29" transform="translate(260,66)"/>
<path d="M0 0 C5.61 0 11.22 0 17 0 C15.9275 1.60875 14.855 3.2175 13.75 4.875 C9.48750701 11.57073797 6.41125771 18.16890331 5 26 C3.35 26 1.7 26 0 26 C0 17.42 0 8.84 0 0 Z " fill="#DAE6F5" transform="translate(32,201)"/>
<path d="M0 0 C2.80972581 0.30104205 4.05669289 1.04724408 6.25 2.875 C8.84582371 7.51039948 8.91885614 11.80580497 8 17 C6.58243427 19.57025758 5.18665103 20.9773478 3 23 C1.1875 22.875 1.1875 22.875 -1 22 C-4.29906354 17.28705209 -4.91674929 12.57769566 -4 7 C-2.89676671 4.39235767 -1.60598949 2.35879707 0 0 Z " fill="#D8E4F4" transform="translate(86,222)"/>
<path d="M0 0 C3.09322404 0.3344026 4.58887768 0.5595118 6.75 2.875 C9.21558438 7.06649345 9.64683632 11.23856599 9 16 C7.3125 19.4375 7.3125 19.4375 5 22 C2.25 22.875 2.25 22.875 0 23 C-2.62100434 16.88432321 -4.5093542 11.57143485 -2.3203125 4.94140625 C-1.61205992 3.26520849 -0.81378875 1.6275775 0 0 Z " fill="#D9E6F4" transform="translate(311,222)"/>
<path d="M0 0 C1 2 1 2 1 10 C34.66 10 68.32 10 103 10 C103 10.33 103 10.66 103 11 C66.7 11 30.4 11 -7 11 C-7 4 -7 4 -5.75 1.5625 C-4 0 -4 0 0 0 Z " fill="#DB3945" transform="translate(18,14)"/>
<path d="M0 0 C1.59134766 -0.02513672 1.59134766 -0.02513672 3.21484375 -0.05078125 C6.0625 0.3125 6.0625 0.3125 7.9140625 1.6796875 C9.58838358 4.06018482 9.54826877 5.46728293 9.0625 8.3125 C7.625 10.625 7.625 10.625 5.0625 12.3125 C0.94497738 12.99245786 -2.63543627 12.85238008 -6.5 11.25 C-8.70232517 8.28164869 -8.32786882 5.89088086 -7.9375 2.3125 C-5.24648766 -0.37851234 -3.74674054 0.01362451 0 0 Z " fill="#171403" transform="translate(294.9375,159.6875)"/>
<path d="M0 0 C0.33 0 0.66 0 1 0 C2.03206352 11.63938303 2.03206352 11.63938303 -1.625 16.125 C-5.22016887 19.94843356 -9.58345528 20.91331842 -14.71044922 21.22705078 C-16.07523628 21.22673852 -17.44005272 21.21570215 -18.8046875 21.1953125 C-19.5286673 21.1924826 -20.25264709 21.18965271 -20.99856567 21.18673706 C-23.2908849 21.17562087 -25.58280063 21.15053312 -27.875 21.125 C-29.43749432 21.1149591 -30.99999482 21.10583519 -32.5625 21.09765625 C-36.37515338 21.07570973 -40.18750848 21.04124013 -44 21 C-44.12375 22.11375 -44.2475 23.2275 -44.375 24.375 C-45 28 -45 28 -47 30 C-46.125 22.375 -46.125 22.375 -45 19 C-43.41131104 18.99383667 -43.41131104 18.99383667 -41.79052734 18.98754883 C-37.84277373 18.96569717 -33.8960083 18.91134636 -29.94873047 18.84741211 C-28.24374904 18.8242844 -26.53862581 18.80984867 -24.83349609 18.80444336 C-22.37508313 18.79511488 -19.91888422 18.75404475 -17.4609375 18.70703125 C-16.70444916 18.7109639 -15.94796082 18.71489655 -15.16854858 18.71894836 C-9.49151019 18.56413015 -6.95894877 17.08652247 -3 13 C-1.08471074 8.80460447 -0.54729626 4.56080219 0 0 Z " fill="#B6B4B2" transform="translate(396,219)"/>
<path d="M0 0 C1.32 0 2.64 0 4 0 C4 7.59 4 15.18 4 23 C5.32 23.33 6.64 23.66 8 24 C5.36 24 2.72 24 0 24 C0 16.08 0 8.16 0 0 Z " fill="#DF2B35" transform="translate(374,204)"/>
<path d="M0 0 C8.63030626 8.63030626 11.15802583 31.92996571 11.27026367 43.66845703 C11.24181872 47.11680768 11.1466135 50.55458276 11 54 C10.67 54 10.34 54 10 54 C9.93530518 53.36723145 9.87061035 52.73446289 9.80395508 52.08251953 C8.42285707 38.97335063 6.48987151 26.54145689 2.58544922 13.9453125 C1.17821705 9.26940512 0 4.92539499 0 0 Z " fill="#CBCAC7" transform="translate(386,128)"/>
<path d="M0 0 C1.37432457 3.81756824 0.67975039 7.07255329 0 11 C-2.31 11 -4.62 11 -7 11 C-7.36300778 4.70786517 -7.36300778 4.70786517 -5.75 1.5625 C-4 0 -4 0 0 0 Z " fill="#A0262F" transform="translate(18,14)"/>
<path d="M0 0 C2.64 0 5.28 0 8 0 C7.67 0.99 7.34 1.98 7 3 C0.565 3.495 0.565 3.495 -6 4 C-6 7.63 -6 11.26 -6 15 C2.25 15 10.5 15 19 15 C18.67 15.66 18.34 16.32 18 17 C9.75 16.67 1.5 16.34 -7 16 C-7 11.71 -7 7.42 -7 3 C-5.02 3 -3.04 3 -1 3 C-0.67 2.01 -0.34 1.02 0 0 Z " fill="#AA9B1E" transform="translate(266,62)"/>
<path d="M0 0 C0.33 0.66 0.66 1.32 1 2 C-4.15619841 9.60231301 -10.9895143 17.70651536 -20.33984375 19.71875 C-21.21769531 19.8115625 -22.09554688 19.904375 -23 20 C-20.04148212 17.51866242 -17.02831087 15.39595521 -13.75 13.375 C-8.23524551 9.77882396 -4.19571061 5.01898243 0 0 Z " fill="#BABAB5" transform="translate(345,256)"/>
<path d="M0 0 C0 1.65 0 3.3 0 5 C-5.28 5 -10.56 5 -16 5 C-16 4.67 -16 4.34 -16 4 C-14.02 4 -12.04 4 -10 4 C-9.67 3.01 -9.34 2.02 -9 1 C-5.8035914 -0.06546953 -3.34252724 -0.07427838 0 0 Z " fill="#A9A643" transform="translate(283,61)"/>
<path d="M0 0 C-4.13142597 4.13142597 -9.53438047 3.18365097 -15 3.1875 C-16.37285156 3.20586914 -16.37285156 3.20586914 -17.7734375 3.22460938 C-19.09214844 3.22750977 -19.09214844 3.22750977 -20.4375 3.23046875 C-21.24058594 3.23457764 -22.04367188 3.23868652 -22.87109375 3.24291992 C-25 3 -25 3 -28 1 C-26.83082031 1.01160156 -25.66164063 1.02320313 -24.45703125 1.03515625 C-22.90885577 1.04453913 -21.36067855 1.0536388 -19.8125 1.0625 C-19.04357422 1.07087891 -18.27464844 1.07925781 -17.48242188 1.08789062 C-11.54998559 1.11335172 -5.91740292 -0.13761402 0 0 Z " fill="#7A7B73" transform="translate(96,276)"/>
<path d="M0 0 C0.33 0 0.66 0 1 0 C2.03213766 11.64021918 2.03213766 11.64021918 -1.6875 16.1875 C-4.25295174 18.69810836 -6.31176301 19.89152244 -10 20 C-9.236875 19.278125 -8.47375 18.55625 -7.6875 17.8125 C-2.42555795 12.30581646 -1.21320081 7.35056959 0 0 Z " fill="#D5D5D3" transform="translate(396,219)"/>
<path d="M0 0 C1.32 0 2.64 0 4 0 C5.37432457 3.81756824 4.67975039 7.07255329 4 11 C3.01 11 2.02 11 1 11 C1.01160156 10.37351562 1.02320313 9.74703125 1.03515625 9.1015625 C1.04417969 8.28429688 1.05320312 7.46703125 1.0625 6.625 C1.07990234 5.40683594 1.07990234 5.40683594 1.09765625 4.1640625 C1.14466334 1.95062858 1.14466334 1.95062858 0 0 Z " fill="#7B1B20" transform="translate(14,14)"/>
<path d="M0 0 C4.64946012 3.09964008 5.47177977 7.77741252 7 13 C7.51291147 15.6948873 7.79313114 18.25898756 8 21 C5.43649865 17.15474797 4.37630623 13.19947612 3 8.8125 C2.07464653 5.84774286 2.07464653 5.84774286 0 3 C0 2.01 0 1.02 0 0 Z " fill="#8E8B81" transform="translate(366,67)"/>
<path d="M0 0 C2.64 0 5.28 0 8 0 C7.67 0.99 7.34 1.98 7 3 C2.23692563 3.95261487 -2.1666528 4.08333357 -7 4 C-7 3.67 -7 3.34 -7 3 C-5.02 3 -3.04 3 -1 3 C-0.67 2.01 -0.34 1.02 0 0 Z " fill="#7C762F" transform="translate(266,62)"/>
<path d="M0 0 C3.125 0.375 3.125 0.375 6 1 C5.34 2.32 4.68 3.64 4 5 C2.02 5 0.04 5 -2 5 C-2 2 -2 2 0 0 Z " fill="#1C1A12" transform="translate(261,60)"/>
<path d="M0 0 C2.78845874 1.39422937 2.96269632 3.3754908 4.0703125 6.14453125 C5.49579179 8.98950042 7.65015996 10.90419672 10 13 C5.13045212 11.60870061 2.83659727 9.13332746 0 5 C-0.3125 2.125 -0.3125 2.125 0 0 Z " fill="#DEDFDD" transform="translate(0,226)"/>
<path d="M0 0 C2.31 0.33 4.62 0.66 7 1 C7.33 2.65 7.66 4.3 8 6 C5.0280615 4.87548273 2.66559313 3.77706209 0 2 C0 1.34 0 0.68 0 0 Z " fill="#56533E" transform="translate(345,64)"/>
<path d="M0 0 C2.99775644 0.24471481 5.30677828 0.65338914 8 2 C8 2.66 8 3.32 8 4 C4.37 3.67 0.74 3.34 -3 3 C-2.01 2.01 -1.02 1.02 0 0 Z " fill="#959664" transform="translate(337,62)"/>
<path d="M0 0 C3.057952 1.73559438 5.63379989 3.38472619 8 6 C7.67 6.66 7.34 7.32 7 8 C5.8274869 7.04882866 4.66212985 6.08882991 3.5 5.125 C2.8503125 4.59132813 2.200625 4.05765625 1.53125 3.5078125 C1.0259375 3.01023438 0.520625 2.51265625 0 2 C0 1.34 0 0.68 0 0 Z " fill="#AAA7A3" transform="translate(358,59)"/>
</svg>
